<svg width="309" height="77" viewBox="0 0 309 77" fill="none" xmlns="http://www.w3.org/2000/svg">
<path d="M200.415 37.1844H211.243V44.2152H211.404C211.885 43.1166 212.607 42.0181 213.569 40.9928C214.452 39.9674 215.494 39.1618 216.697 38.4295C217.82 37.6971 219.104 37.1844 220.467 36.745C221.751 36.3788 223.194 36.2324 224.638 36.1591C225.36 36.1591 226.162 36.3056 227.125 36.5253V46.1926C226.563 46.1193 225.921 46.0461 225.2 45.9729C224.398 45.8996 223.676 45.8264 223.034 45.8264C220.949 45.8264 219.184 46.1926 217.74 46.7785C216.296 47.4376 215.093 48.3164 214.211 49.415C213.329 50.5135 212.687 51.7586 212.366 53.2233C211.965 54.688 211.805 56.2993 211.805 57.9837V75.2188H200.415V37.1844Z" fill="#10239E"/>
<path d="M185.078 52.0515C184.516 49.415 183.554 47.4376 182.19 46.0461C180.827 44.7278 178.741 44.0687 176.014 43.9955C174.169 43.9955 172.645 44.2884 171.442 44.8743C170.239 45.4602 169.276 46.1193 168.555 46.9249C167.833 47.8038 167.351 48.6826 167.031 49.5615C166.71 50.5135 166.549 51.3192 166.549 52.0515H185.078ZM166.549 58.6428C166.71 62.0117 167.592 64.5018 169.357 65.9665C171.041 67.5045 173.528 68.2369 176.736 68.2369C178.982 68.2369 180.987 67.7242 182.671 66.6989C184.276 65.6736 185.318 64.5018 185.719 63.33H195.745C194.141 67.8707 191.655 71.1663 188.366 73.0705C184.997 75.0479 180.987 76 176.335 76C173.046 76 170.079 75.5606 167.512 74.6085C164.865 73.6564 162.619 72.2649 160.855 70.5072C159.01 68.7495 157.566 66.6989 156.603 64.2088C155.641 61.792 155.16 59.0823 155.16 56.1528C155.16 53.3698 155.641 50.7333 156.684 48.2432C157.646 45.8264 159.09 43.7025 161.015 41.9448C162.86 40.1871 165.106 38.7224 167.672 37.6971C170.239 36.6718 173.126 36.1591 176.335 36.1591C179.864 36.1591 182.912 36.8183 185.559 38.0633C188.126 39.3083 190.291 40.9928 191.976 43.0434C193.66 45.1673 194.863 47.5841 195.665 50.2206C196.387 52.9304 196.628 55.7134 196.467 58.6428H166.549Z" fill="#10239E"/>
<path d="M141.168 75.2188H128.495L114.371 37.1845H126.322L135.065 63.0371H135.225L143.968 37.1845H155.277L141.168 75.2188Z" fill="#10239E"/>
<path d="M102.964 52.0515C102.402 49.415 101.44 47.4376 100.076 46.0461C98.7125 44.7278 96.6271 44.0687 93.9 43.9955C92.0552 43.9955 90.5312 44.2884 89.3281 44.8743C88.1249 45.4602 87.1624 46.1193 86.4405 46.9249C85.7187 47.8038 85.2374 48.6826 84.9166 49.5615C84.5957 50.5135 84.4353 51.3192 84.4353 52.0515H102.964ZM84.4353 58.6428C84.5957 62.0117 85.478 64.5018 87.2426 65.9665C88.927 67.5045 91.4135 68.2369 94.6219 68.2369C96.8677 68.2369 98.8729 67.7242 100.557 66.6989C102.162 65.6736 103.204 64.5018 103.605 63.33H113.631C112.027 67.8707 109.541 71.1663 106.252 73.0705C102.883 75.0479 98.8729 76 94.2208 76C90.9322 76 87.9645 75.5606 85.3978 74.6085C82.7509 73.6564 80.5051 72.2649 78.7405 70.5072C76.8957 68.7495 75.4519 66.6989 74.4894 64.2088C73.5269 61.792 73.0457 59.0823 73.0457 56.1528C73.0457 53.3698 73.5269 50.7333 74.5696 48.2432C75.5321 45.8264 76.9759 43.7025 78.9009 41.9448C80.7457 40.1871 82.9916 38.7224 85.5582 37.6971C88.1249 36.6718 91.0125 36.1591 94.2208 36.1591C97.75 36.1591 100.798 36.8183 103.445 38.0633C106.012 39.3083 108.177 40.9928 109.862 43.0434C111.546 45.1673 112.749 47.5841 113.551 50.2206C114.273 52.9304 114.514 55.7134 114.353 58.6428H84.4353Z" fill="#10239E"/>
<path d="M57.7505 21.0235H68.9797V75.2188H57.7505V21.0235Z" fill="#10239E"/>
<path d="M40.7679 39.669C40.5266 38.3631 40.0442 37.2023 39.3205 36.114C38.5164 35.0258 37.6319 34.0826 36.5061 33.212C35.3804 32.4139 34.0938 31.761 32.6465 31.3257C31.1991 30.8904 29.7517 30.6727 28.2239 30.6002C25.3291 30.6002 22.9168 31.108 20.987 32.1237C18.9768 33.1394 17.3686 34.4454 16.1624 36.114C14.8758 37.7827 13.9913 39.669 13.4285 41.773C12.8656 43.9495 12.6244 46.126 12.6244 48.3751C12.6244 50.5516 12.8656 52.7281 13.4285 54.7595C13.9913 56.7909 14.8758 58.6772 16.1624 60.2734C17.3686 61.942 18.9768 63.2479 20.987 64.2636C22.9168 65.2794 25.3291 65.7147 28.2239 65.7147C32.0836 65.7147 35.0588 64.6989 37.2298 62.5224C39.4009 60.4185 40.7679 57.589 41.2503 54.1066H53.4726C53.151 57.3713 52.2665 60.2734 50.9799 62.8852C49.613 65.497 47.8439 67.7461 45.6729 69.5598C43.4214 71.4461 40.8483 72.8246 37.9535 73.7678C34.9783 74.7835 31.7619 75.2188 28.2239 75.2188C23.8014 75.2188 19.8613 74.5658 16.3232 73.1874C12.7852 71.8089 9.89043 69.9226 7.47813 67.4559C5.06583 65.0617 3.2164 62.2322 1.92984 58.9675C0.64328 55.7027 0 52.1477 0 48.3751C0 44.5299 0.64328 40.9749 1.92984 37.6376C3.2164 34.3003 5.06583 31.3982 7.47813 28.9315C9.89043 26.5373 12.7852 24.5785 16.3232 23.1275C19.8613 21.749 23.8014 21.096 28.2239 21.0235C31.3599 21.0235 34.3351 21.4588 37.1494 22.2569C39.9638 23.1275 42.4565 24.2883 44.708 25.8844C46.9594 27.4805 48.8089 29.3668 50.2562 31.6884C51.7036 34.01 52.5881 36.6944 52.9902 39.669H40.7679Z" fill="#10239E"/>
<path d="M296.808 25.9193H306.665V36.4253H296.808V56.5007C296.808 63.3333 297.236 63.313 298.091 64.1135C298.947 64.9139 300.658 65.3141 303.225 65.3141C304.08 65.4142 304.829 65.3141 305.685 65.2141C306.433 65.2141 307.468 64.6473 308.002 64.1135V75.1197C306.665 75.6846 305.15 76.3204 303.653 76.3204C302.048 76.4205 300.551 76.4205 299.054 76.4205C298.954 76.4205 297.26 76.4205 296.547 76.3204C294.811 76.0767 292.228 75.1698 290.624 74.2692C289.732 73.769 287.415 71.5177 287.148 70.5171C286.346 69.2664 285.9 66.815 285.9 64.2135V36.4253H276.453V25.9193H285.9V8.40939H296.808V25.9193Z" fill="#10239E"/>
<path fill-rule="evenodd" clip-rule="evenodd" d="M229.397 36.4253H236.884V75.2198H248.862V36.4253H257.738L257.738 25.9194H248.862L248.862 25.0188C248.862 22.9177 249.289 20.9223 250.145 20.0218C251.001 19.1213 252.498 18.621 254.637 18.621C256.562 18.621 258.38 18.721 260.198 18.9211V8.40941L256.134 8.40939L252.123 8.40941C247.043 8.40941 243.033 10.8332 240.627 13.1621C237.525 16.1638 236.884 19.6158 236.884 24.1183L236.884 25.9194H229.397L229.397 36.4253ZM273.245 40.9279H261.588V75.2198H273.245V40.9279Z" fill="#10239E"/>
<path d="M273.245 31.2725C273.245 34.3204 270.774 36.7911 267.726 36.7911H267.535C264.487 36.7911 262.016 34.3203 262.016 31.2725C262.016 28.2246 264.487 25.7538 267.534 25.7538H267.726C270.774 25.7538 273.245 28.2246 273.245 31.2725Z" fill="#40A9FF"/>
</svg>
